<svg viewBox="0 0 60.7 38" xmlns="http://www.w3.org/2000/svg"><g stroke="#b2b2b2"><g transform="translate(35 11)"><circle cx="12.4" cy="13" fill="none" r="12" stroke-width="2"/><path d="m12.1 13.9-11.2-2.6c-.4-.1-.7-.5-.6-.9s.5-.7.9-.6l10.4 2.5v-10.4c0-.4.3-.8.8-.8s.8.3.8.8v11.4c0 .3-.3.6-.6.6z" fill="#b2b2b2" stroke-width=".2"/></g><g fill="none" stroke-width="2" transform=""><path d="m11.8 19.8v14.7c0 1-.8 1.8-1.8 1.8h-7.1c-1 0-1.8-.8-1.8-1.8v-14.7c0-1 .8-1.8 1.8-1.8h7.1c1 0 1.8.8 1.8 1.8z"/><path d="m28.8 2.7v31.5c0 1-.8 1.8-1.8 1.8h-7.1c-1 0-1.8-.8-1.8-1.8v-31.5c0-1 .8-1.8 1.8-1.8h7.1c1 .1 1.8.9 1.8 1.8z"/></g></g></svg>